<mxfile host="Electron" agent="Mozilla/5.0 (X11; Linux x86_64) AppleWebKit/537.36 (KHTML, like Gecko) draw.io/27.0.9 Chrome/134.0.6998.205 Electron/35.4.0 Safari/537.36" version="27.0.9">
  <diagram name="Page-1" id="6zqGO3Qn_d37B2kY7Pro">
    <mxGraphModel dx="713" dy="441" grid="1" gridSize="10" guides="1" tooltips="1" connect="1" arrows="1" fold="1" page="1" pageScale="1" pageWidth="850" pageHeight="1100" math="0" shadow="0">
      <root>
        <mxCell id="0" />
        <mxCell id="1" parent="0" />
        <mxCell id="tqfpcxPNvMQN-E41AzFX-353" value="" style="shape=table;startSize=0;container=1;collapsible=0;childLayout=tableLayout;fontSize=16;strokeColor=none;fillColor=none;shadow=0;" vertex="1" parent="1">
          <mxGeometry x="40" y="120" width="480" height="60" as="geometry" />
        </mxCell>
        <mxCell id="tqfpcxPNvMQN-E41AzFX-434" style="shape=tableRow;horizontal=0;startSize=0;swimlaneHead=0;swimlaneBody=0;strokeColor=inherit;top=0;left=0;bottom=0;right=0;collapsible=0;dropTarget=0;fillColor=none;points=[[0,0.5],[1,0.5]];portConstraint=eastwest;fontSize=16;" vertex="1" parent="tqfpcxPNvMQN-E41AzFX-353">
          <mxGeometry width="480" height="20" as="geometry" />
        </mxCell>
        <mxCell id="tqfpcxPNvMQN-E41AzFX-444" style="shape=partialRectangle;html=1;whiteSpace=wrap;connectable=0;strokeColor=inherit;overflow=hidden;fillColor=none;top=0;left=0;bottom=0;right=0;pointerEvents=1;fontSize=16;" vertex="1" parent="tqfpcxPNvMQN-E41AzFX-434">
          <mxGeometry height="20" as="geometry">
            <mxRectangle height="20" as="alternateBounds" />
          </mxGeometry>
        </mxCell>
        <mxCell id="tqfpcxPNvMQN-E41AzFX-447" style="shape=partialRectangle;html=1;whiteSpace=wrap;connectable=0;strokeColor=inherit;overflow=hidden;fillColor=none;top=0;left=0;bottom=0;right=0;pointerEvents=1;fontSize=16;" vertex="1" parent="tqfpcxPNvMQN-E41AzFX-434">
          <mxGeometry height="20" as="geometry">
            <mxRectangle height="20" as="alternateBounds" />
          </mxGeometry>
        </mxCell>
        <mxCell id="tqfpcxPNvMQN-E41AzFX-451" value="47" style="shape=partialRectangle;html=1;whiteSpace=wrap;connectable=0;strokeColor=#666666;overflow=hidden;fillColor=none;top=0;left=1;bottom=0;right=0;pointerEvents=1;fontSize=16;rowspan=1;colspan=4;align=left;fontColor=#333333;" vertex="1" parent="tqfpcxPNvMQN-E41AzFX-434">
          <mxGeometry width="40" height="20" as="geometry">
            <mxRectangle width="10" height="20" as="alternateBounds" />
          </mxGeometry>
        </mxCell>
        <mxCell id="tqfpcxPNvMQN-E41AzFX-452" style="shape=partialRectangle;html=1;whiteSpace=wrap;connectable=0;strokeColor=#666666;overflow=hidden;fillColor=#f5f5f5;top=0;left=0;bottom=0;right=0;pointerEvents=1;fontSize=16;fontColor=#333333;" vertex="1" visible="0" parent="tqfpcxPNvMQN-E41AzFX-434">
          <mxGeometry x="10" width="10" height="20" as="geometry">
            <mxRectangle width="10" height="20" as="alternateBounds" />
          </mxGeometry>
        </mxCell>
        <mxCell id="tqfpcxPNvMQN-E41AzFX-453" style="shape=partialRectangle;html=1;whiteSpace=wrap;connectable=0;strokeColor=#666666;overflow=hidden;fillColor=#f5f5f5;top=0;left=0;bottom=0;right=0;pointerEvents=1;fontSize=16;fontColor=#333333;" vertex="1" visible="0" parent="tqfpcxPNvMQN-E41AzFX-434">
          <mxGeometry x="20" width="10" height="20" as="geometry">
            <mxRectangle width="10" height="20" as="alternateBounds" />
          </mxGeometry>
        </mxCell>
        <mxCell id="tqfpcxPNvMQN-E41AzFX-454" style="shape=partialRectangle;html=1;whiteSpace=wrap;connectable=0;strokeColor=#666666;overflow=hidden;fillColor=#f5f5f5;top=0;left=0;bottom=0;right=0;pointerEvents=1;fontSize=16;fontColor=#333333;" vertex="1" visible="0" parent="tqfpcxPNvMQN-E41AzFX-434">
          <mxGeometry x="30" width="10" height="20" as="geometry">
            <mxRectangle width="10" height="20" as="alternateBounds" />
          </mxGeometry>
        </mxCell>
        <mxCell id="tqfpcxPNvMQN-E41AzFX-455" value="40" style="shape=partialRectangle;html=1;whiteSpace=wrap;connectable=0;strokeColor=#666666;overflow=hidden;fillColor=none;top=0;left=0;bottom=0;right=1;pointerEvents=1;fontSize=16;rowspan=1;colspan=4;align=right;fontColor=#333333;" vertex="1" parent="tqfpcxPNvMQN-E41AzFX-434">
          <mxGeometry x="40" width="40" height="20" as="geometry">
            <mxRectangle width="10" height="20" as="alternateBounds" />
          </mxGeometry>
        </mxCell>
        <mxCell id="tqfpcxPNvMQN-E41AzFX-456" style="shape=partialRectangle;html=1;whiteSpace=wrap;connectable=0;strokeColor=#666666;overflow=hidden;fillColor=#f5f5f5;top=0;left=0;bottom=0;right=0;pointerEvents=1;fontSize=16;fontColor=#333333;" vertex="1" visible="0" parent="tqfpcxPNvMQN-E41AzFX-434">
          <mxGeometry x="50" width="10" height="20" as="geometry">
            <mxRectangle width="10" height="20" as="alternateBounds" />
          </mxGeometry>
        </mxCell>
        <mxCell id="tqfpcxPNvMQN-E41AzFX-457" style="shape=partialRectangle;html=1;whiteSpace=wrap;connectable=0;strokeColor=#666666;overflow=hidden;fillColor=#f5f5f5;top=0;left=0;bottom=0;right=0;pointerEvents=1;fontSize=16;fontColor=#333333;" vertex="1" visible="0" parent="tqfpcxPNvMQN-E41AzFX-434">
          <mxGeometry x="60" width="10" height="20" as="geometry">
            <mxRectangle width="10" height="20" as="alternateBounds" />
          </mxGeometry>
        </mxCell>
        <mxCell id="tqfpcxPNvMQN-E41AzFX-458" style="shape=partialRectangle;html=1;whiteSpace=wrap;connectable=0;strokeColor=#666666;overflow=hidden;fillColor=#f5f5f5;top=0;left=0;bottom=0;right=0;pointerEvents=1;fontSize=16;fontColor=#333333;" vertex="1" visible="0" parent="tqfpcxPNvMQN-E41AzFX-434">
          <mxGeometry x="70" width="10" height="20" as="geometry">
            <mxRectangle width="10" height="20" as="alternateBounds" />
          </mxGeometry>
        </mxCell>
        <mxCell id="tqfpcxPNvMQN-E41AzFX-459" value="39" style="shape=partialRectangle;html=1;whiteSpace=wrap;connectable=0;strokeColor=#666666;overflow=hidden;fillColor=none;top=0;left=1;bottom=0;right=0;pointerEvents=1;fontSize=16;rowspan=1;colspan=4;align=left;fontColor=#333333;" vertex="1" parent="tqfpcxPNvMQN-E41AzFX-434">
          <mxGeometry x="80" width="40" height="20" as="geometry">
            <mxRectangle width="10" height="20" as="alternateBounds" />
          </mxGeometry>
        </mxCell>
        <mxCell id="tqfpcxPNvMQN-E41AzFX-460" style="shape=partialRectangle;html=1;whiteSpace=wrap;connectable=0;strokeColor=#666666;overflow=hidden;fillColor=#f5f5f5;top=0;left=0;bottom=0;right=0;pointerEvents=1;fontSize=16;fontColor=#333333;" vertex="1" visible="0" parent="tqfpcxPNvMQN-E41AzFX-434">
          <mxGeometry x="90" width="10" height="20" as="geometry">
            <mxRectangle width="10" height="20" as="alternateBounds" />
          </mxGeometry>
        </mxCell>
        <mxCell id="tqfpcxPNvMQN-E41AzFX-461" style="shape=partialRectangle;html=1;whiteSpace=wrap;connectable=0;strokeColor=#666666;overflow=hidden;fillColor=#f5f5f5;top=0;left=0;bottom=0;right=0;pointerEvents=1;fontSize=16;fontColor=#333333;" vertex="1" visible="0" parent="tqfpcxPNvMQN-E41AzFX-434">
          <mxGeometry x="100" width="10" height="20" as="geometry">
            <mxRectangle width="10" height="20" as="alternateBounds" />
          </mxGeometry>
        </mxCell>
        <mxCell id="tqfpcxPNvMQN-E41AzFX-462" style="shape=partialRectangle;html=1;whiteSpace=wrap;connectable=0;strokeColor=#666666;overflow=hidden;fillColor=#f5f5f5;top=0;left=0;bottom=0;right=0;pointerEvents=1;fontSize=16;fontColor=#333333;" vertex="1" visible="0" parent="tqfpcxPNvMQN-E41AzFX-434">
          <mxGeometry x="110" width="10" height="20" as="geometry">
            <mxRectangle width="10" height="20" as="alternateBounds" />
          </mxGeometry>
        </mxCell>
        <mxCell id="tqfpcxPNvMQN-E41AzFX-463" value="32" style="shape=partialRectangle;html=1;whiteSpace=wrap;connectable=0;strokeColor=#666666;overflow=hidden;fillColor=none;top=0;left=0;bottom=0;right=1;pointerEvents=1;fontSize=16;rowspan=1;colspan=4;align=right;fontColor=#333333;" vertex="1" parent="tqfpcxPNvMQN-E41AzFX-434">
          <mxGeometry x="120" width="40" height="20" as="geometry">
            <mxRectangle width="10" height="20" as="alternateBounds" />
          </mxGeometry>
        </mxCell>
        <mxCell id="tqfpcxPNvMQN-E41AzFX-464" style="shape=partialRectangle;html=1;whiteSpace=wrap;connectable=0;strokeColor=#666666;overflow=hidden;fillColor=#f5f5f5;top=0;left=0;bottom=0;right=0;pointerEvents=1;fontSize=16;fontColor=#333333;" vertex="1" visible="0" parent="tqfpcxPNvMQN-E41AzFX-434">
          <mxGeometry x="130" width="10" height="20" as="geometry">
            <mxRectangle width="10" height="20" as="alternateBounds" />
          </mxGeometry>
        </mxCell>
        <mxCell id="tqfpcxPNvMQN-E41AzFX-465" style="shape=partialRectangle;html=1;whiteSpace=wrap;connectable=0;strokeColor=#666666;overflow=hidden;fillColor=#f5f5f5;top=0;left=0;bottom=0;right=0;pointerEvents=1;fontSize=16;fontColor=#333333;" vertex="1" visible="0" parent="tqfpcxPNvMQN-E41AzFX-434">
          <mxGeometry x="140" width="10" height="20" as="geometry">
            <mxRectangle width="10" height="20" as="alternateBounds" />
          </mxGeometry>
        </mxCell>
        <mxCell id="tqfpcxPNvMQN-E41AzFX-466" style="shape=partialRectangle;html=1;whiteSpace=wrap;connectable=0;strokeColor=#666666;overflow=hidden;fillColor=#f5f5f5;top=0;left=0;bottom=0;right=0;pointerEvents=1;fontSize=16;fontColor=#333333;" vertex="1" visible="0" parent="tqfpcxPNvMQN-E41AzFX-434">
          <mxGeometry x="150" width="10" height="20" as="geometry">
            <mxRectangle width="10" height="20" as="alternateBounds" />
          </mxGeometry>
        </mxCell>
        <mxCell id="tqfpcxPNvMQN-E41AzFX-467" value="31" style="shape=partialRectangle;html=1;whiteSpace=wrap;connectable=0;strokeColor=#666666;overflow=hidden;fillColor=none;top=0;left=1;bottom=0;right=0;pointerEvents=1;fontSize=16;rowspan=1;colspan=4;align=left;fontColor=#333333;" vertex="1" parent="tqfpcxPNvMQN-E41AzFX-434">
          <mxGeometry x="160" width="40" height="20" as="geometry">
            <mxRectangle width="10" height="20" as="alternateBounds" />
          </mxGeometry>
        </mxCell>
        <mxCell id="tqfpcxPNvMQN-E41AzFX-468" style="shape=partialRectangle;html=1;whiteSpace=wrap;connectable=0;strokeColor=#666666;overflow=hidden;fillColor=#f5f5f5;top=0;left=0;bottom=0;right=0;pointerEvents=1;fontSize=16;fontColor=#333333;" vertex="1" visible="0" parent="tqfpcxPNvMQN-E41AzFX-434">
          <mxGeometry x="170" width="10" height="20" as="geometry">
            <mxRectangle width="10" height="20" as="alternateBounds" />
          </mxGeometry>
        </mxCell>
        <mxCell id="tqfpcxPNvMQN-E41AzFX-469" style="shape=partialRectangle;html=1;whiteSpace=wrap;connectable=0;strokeColor=#666666;overflow=hidden;fillColor=#f5f5f5;top=0;left=0;bottom=0;right=0;pointerEvents=1;fontSize=16;fontColor=#333333;" vertex="1" visible="0" parent="tqfpcxPNvMQN-E41AzFX-434">
          <mxGeometry x="180" width="10" height="20" as="geometry">
            <mxRectangle width="10" height="20" as="alternateBounds" />
          </mxGeometry>
        </mxCell>
        <mxCell id="tqfpcxPNvMQN-E41AzFX-470" style="shape=partialRectangle;html=1;whiteSpace=wrap;connectable=0;strokeColor=#666666;overflow=hidden;fillColor=#f5f5f5;top=0;left=0;bottom=0;right=0;pointerEvents=1;fontSize=16;fontColor=#333333;" vertex="1" visible="0" parent="tqfpcxPNvMQN-E41AzFX-434">
          <mxGeometry x="190" width="10" height="20" as="geometry">
            <mxRectangle width="10" height="20" as="alternateBounds" />
          </mxGeometry>
        </mxCell>
        <mxCell id="tqfpcxPNvMQN-E41AzFX-471" value="24" style="shape=partialRectangle;html=1;whiteSpace=wrap;connectable=0;strokeColor=#666666;overflow=hidden;fillColor=none;top=0;left=0;bottom=0;right=1;pointerEvents=1;fontSize=16;rowspan=1;colspan=4;align=right;fontColor=#333333;" vertex="1" parent="tqfpcxPNvMQN-E41AzFX-434">
          <mxGeometry x="200" width="40" height="20" as="geometry">
            <mxRectangle width="10" height="20" as="alternateBounds" />
          </mxGeometry>
        </mxCell>
        <mxCell id="tqfpcxPNvMQN-E41AzFX-472" style="shape=partialRectangle;html=1;whiteSpace=wrap;connectable=0;strokeColor=#666666;overflow=hidden;fillColor=#f5f5f5;top=0;left=0;bottom=0;right=0;pointerEvents=1;fontSize=16;fontColor=#333333;" vertex="1" visible="0" parent="tqfpcxPNvMQN-E41AzFX-434">
          <mxGeometry x="210" width="10" height="20" as="geometry">
            <mxRectangle width="10" height="20" as="alternateBounds" />
          </mxGeometry>
        </mxCell>
        <mxCell id="tqfpcxPNvMQN-E41AzFX-473" style="shape=partialRectangle;html=1;whiteSpace=wrap;connectable=0;strokeColor=#666666;overflow=hidden;fillColor=#f5f5f5;top=0;left=0;bottom=0;right=0;pointerEvents=1;fontSize=16;fontColor=#333333;" vertex="1" visible="0" parent="tqfpcxPNvMQN-E41AzFX-434">
          <mxGeometry x="220" width="10" height="20" as="geometry">
            <mxRectangle width="10" height="20" as="alternateBounds" />
          </mxGeometry>
        </mxCell>
        <mxCell id="tqfpcxPNvMQN-E41AzFX-474" style="shape=partialRectangle;html=1;whiteSpace=wrap;connectable=0;strokeColor=#666666;overflow=hidden;fillColor=#f5f5f5;top=0;left=0;bottom=0;right=0;pointerEvents=1;fontSize=16;fontColor=#333333;" vertex="1" visible="0" parent="tqfpcxPNvMQN-E41AzFX-434">
          <mxGeometry x="230" width="10" height="20" as="geometry">
            <mxRectangle width="10" height="20" as="alternateBounds" />
          </mxGeometry>
        </mxCell>
        <mxCell id="tqfpcxPNvMQN-E41AzFX-475" value="23" style="shape=partialRectangle;html=1;whiteSpace=wrap;connectable=0;strokeColor=#666666;overflow=hidden;fillColor=none;top=0;left=1;bottom=0;right=0;pointerEvents=1;fontSize=16;rowspan=1;colspan=4;align=left;fontColor=#333333;" vertex="1" parent="tqfpcxPNvMQN-E41AzFX-434">
          <mxGeometry x="240" width="40" height="20" as="geometry">
            <mxRectangle width="10" height="20" as="alternateBounds" />
          </mxGeometry>
        </mxCell>
        <mxCell id="tqfpcxPNvMQN-E41AzFX-476" style="shape=partialRectangle;html=1;whiteSpace=wrap;connectable=0;strokeColor=#666666;overflow=hidden;fillColor=#f5f5f5;top=0;left=0;bottom=0;right=0;pointerEvents=1;fontSize=16;fontColor=#333333;" vertex="1" visible="0" parent="tqfpcxPNvMQN-E41AzFX-434">
          <mxGeometry x="250" width="10" height="20" as="geometry">
            <mxRectangle width="10" height="20" as="alternateBounds" />
          </mxGeometry>
        </mxCell>
        <mxCell id="tqfpcxPNvMQN-E41AzFX-477" style="shape=partialRectangle;html=1;whiteSpace=wrap;connectable=0;strokeColor=#666666;overflow=hidden;fillColor=#f5f5f5;top=0;left=0;bottom=0;right=0;pointerEvents=1;fontSize=16;fontColor=#333333;" vertex="1" visible="0" parent="tqfpcxPNvMQN-E41AzFX-434">
          <mxGeometry x="260" width="10" height="20" as="geometry">
            <mxRectangle width="10" height="20" as="alternateBounds" />
          </mxGeometry>
        </mxCell>
        <mxCell id="tqfpcxPNvMQN-E41AzFX-478" style="shape=partialRectangle;html=1;whiteSpace=wrap;connectable=0;strokeColor=#666666;overflow=hidden;fillColor=#f5f5f5;top=0;left=0;bottom=0;right=0;pointerEvents=1;fontSize=16;fontColor=#333333;" vertex="1" visible="0" parent="tqfpcxPNvMQN-E41AzFX-434">
          <mxGeometry x="270" width="10" height="20" as="geometry">
            <mxRectangle width="10" height="20" as="alternateBounds" />
          </mxGeometry>
        </mxCell>
        <mxCell id="tqfpcxPNvMQN-E41AzFX-479" value="16" style="shape=partialRectangle;html=1;whiteSpace=wrap;connectable=0;strokeColor=#666666;overflow=hidden;fillColor=none;top=0;left=0;bottom=0;right=1;pointerEvents=1;fontSize=16;rowspan=1;colspan=4;align=right;fontColor=#333333;" vertex="1" parent="tqfpcxPNvMQN-E41AzFX-434">
          <mxGeometry x="280" width="40" height="20" as="geometry">
            <mxRectangle width="10" height="20" as="alternateBounds" />
          </mxGeometry>
        </mxCell>
        <mxCell id="tqfpcxPNvMQN-E41AzFX-480" style="shape=partialRectangle;html=1;whiteSpace=wrap;connectable=0;strokeColor=#666666;overflow=hidden;fillColor=#f5f5f5;top=0;left=0;bottom=0;right=0;pointerEvents=1;fontSize=16;fontColor=#333333;" vertex="1" visible="0" parent="tqfpcxPNvMQN-E41AzFX-434">
          <mxGeometry x="290" width="10" height="20" as="geometry">
            <mxRectangle width="10" height="20" as="alternateBounds" />
          </mxGeometry>
        </mxCell>
        <mxCell id="tqfpcxPNvMQN-E41AzFX-481" style="shape=partialRectangle;html=1;whiteSpace=wrap;connectable=0;strokeColor=#666666;overflow=hidden;fillColor=#f5f5f5;top=0;left=0;bottom=0;right=0;pointerEvents=1;fontSize=16;fontColor=#333333;" vertex="1" visible="0" parent="tqfpcxPNvMQN-E41AzFX-434">
          <mxGeometry x="300" width="10" height="20" as="geometry">
            <mxRectangle width="10" height="20" as="alternateBounds" />
          </mxGeometry>
        </mxCell>
        <mxCell id="tqfpcxPNvMQN-E41AzFX-482" style="shape=partialRectangle;html=1;whiteSpace=wrap;connectable=0;strokeColor=#666666;overflow=hidden;fillColor=#f5f5f5;top=0;left=0;bottom=0;right=0;pointerEvents=1;fontSize=16;fontColor=#333333;" vertex="1" visible="0" parent="tqfpcxPNvMQN-E41AzFX-434">
          <mxGeometry x="310" width="10" height="20" as="geometry">
            <mxRectangle width="10" height="20" as="alternateBounds" />
          </mxGeometry>
        </mxCell>
        <mxCell id="tqfpcxPNvMQN-E41AzFX-483" value="15" style="shape=partialRectangle;html=1;whiteSpace=wrap;connectable=0;strokeColor=#666666;overflow=hidden;fillColor=none;top=0;left=1;bottom=0;right=0;pointerEvents=1;fontSize=16;rowspan=1;colspan=4;align=left;fontColor=#333333;" vertex="1" parent="tqfpcxPNvMQN-E41AzFX-434">
          <mxGeometry x="320" width="40" height="20" as="geometry">
            <mxRectangle width="10" height="20" as="alternateBounds" />
          </mxGeometry>
        </mxCell>
        <mxCell id="tqfpcxPNvMQN-E41AzFX-484" style="shape=partialRectangle;html=1;whiteSpace=wrap;connectable=0;strokeColor=#666666;overflow=hidden;fillColor=#f5f5f5;top=0;left=0;bottom=0;right=0;pointerEvents=1;fontSize=16;fontColor=#333333;" vertex="1" visible="0" parent="tqfpcxPNvMQN-E41AzFX-434">
          <mxGeometry x="330" width="10" height="20" as="geometry">
            <mxRectangle width="10" height="20" as="alternateBounds" />
          </mxGeometry>
        </mxCell>
        <mxCell id="tqfpcxPNvMQN-E41AzFX-485" style="shape=partialRectangle;html=1;whiteSpace=wrap;connectable=0;strokeColor=#666666;overflow=hidden;fillColor=#f5f5f5;top=0;left=0;bottom=0;right=0;pointerEvents=1;fontSize=16;fontColor=#333333;" vertex="1" visible="0" parent="tqfpcxPNvMQN-E41AzFX-434">
          <mxGeometry x="340" width="10" height="20" as="geometry">
            <mxRectangle width="10" height="20" as="alternateBounds" />
          </mxGeometry>
        </mxCell>
        <mxCell id="tqfpcxPNvMQN-E41AzFX-486" style="shape=partialRectangle;html=1;whiteSpace=wrap;connectable=0;strokeColor=#666666;overflow=hidden;fillColor=#f5f5f5;top=0;left=0;bottom=0;right=0;pointerEvents=1;fontSize=16;fontColor=#333333;" vertex="1" visible="0" parent="tqfpcxPNvMQN-E41AzFX-434">
          <mxGeometry x="350" width="10" height="20" as="geometry">
            <mxRectangle width="10" height="20" as="alternateBounds" />
          </mxGeometry>
        </mxCell>
        <mxCell id="tqfpcxPNvMQN-E41AzFX-487" value="8" style="shape=partialRectangle;html=1;whiteSpace=wrap;connectable=0;strokeColor=#666666;overflow=hidden;fillColor=none;top=0;left=0;bottom=0;right=1;pointerEvents=1;fontSize=16;rowspan=1;colspan=4;align=right;fontColor=#333333;" vertex="1" parent="tqfpcxPNvMQN-E41AzFX-434">
          <mxGeometry x="360" width="40" height="20" as="geometry">
            <mxRectangle width="10" height="20" as="alternateBounds" />
          </mxGeometry>
        </mxCell>
        <mxCell id="tqfpcxPNvMQN-E41AzFX-488" style="shape=partialRectangle;html=1;whiteSpace=wrap;connectable=0;strokeColor=#666666;overflow=hidden;fillColor=#f5f5f5;top=0;left=0;bottom=0;right=0;pointerEvents=1;fontSize=16;fontColor=#333333;" vertex="1" visible="0" parent="tqfpcxPNvMQN-E41AzFX-434">
          <mxGeometry x="370" width="10" height="20" as="geometry">
            <mxRectangle width="10" height="20" as="alternateBounds" />
          </mxGeometry>
        </mxCell>
        <mxCell id="tqfpcxPNvMQN-E41AzFX-489" style="shape=partialRectangle;html=1;whiteSpace=wrap;connectable=0;strokeColor=#666666;overflow=hidden;fillColor=#f5f5f5;top=0;left=0;bottom=0;right=0;pointerEvents=1;fontSize=16;fontColor=#333333;" vertex="1" visible="0" parent="tqfpcxPNvMQN-E41AzFX-434">
          <mxGeometry x="380" width="10" height="20" as="geometry">
            <mxRectangle width="10" height="20" as="alternateBounds" />
          </mxGeometry>
        </mxCell>
        <mxCell id="tqfpcxPNvMQN-E41AzFX-490" style="shape=partialRectangle;html=1;whiteSpace=wrap;connectable=0;strokeColor=#666666;overflow=hidden;fillColor=#f5f5f5;top=0;left=0;bottom=0;right=0;pointerEvents=1;fontSize=16;fontColor=#333333;" vertex="1" visible="0" parent="tqfpcxPNvMQN-E41AzFX-434">
          <mxGeometry x="390" width="10" height="20" as="geometry">
            <mxRectangle width="10" height="20" as="alternateBounds" />
          </mxGeometry>
        </mxCell>
        <mxCell id="tqfpcxPNvMQN-E41AzFX-491" value="7" style="shape=partialRectangle;html=1;whiteSpace=wrap;connectable=0;strokeColor=#666666;overflow=hidden;fillColor=none;top=0;left=1;bottom=0;right=0;pointerEvents=1;fontSize=16;rowspan=1;colspan=4;align=left;fontColor=#333333;" vertex="1" parent="tqfpcxPNvMQN-E41AzFX-434">
          <mxGeometry x="400" width="40" height="20" as="geometry">
            <mxRectangle width="10" height="20" as="alternateBounds" />
          </mxGeometry>
        </mxCell>
        <mxCell id="tqfpcxPNvMQN-E41AzFX-492" style="shape=partialRectangle;html=1;whiteSpace=wrap;connectable=0;strokeColor=#666666;overflow=hidden;fillColor=#f5f5f5;top=0;left=0;bottom=0;right=0;pointerEvents=1;fontSize=16;fontColor=#333333;" vertex="1" visible="0" parent="tqfpcxPNvMQN-E41AzFX-434">
          <mxGeometry x="410" width="10" height="20" as="geometry">
            <mxRectangle width="10" height="20" as="alternateBounds" />
          </mxGeometry>
        </mxCell>
        <mxCell id="tqfpcxPNvMQN-E41AzFX-493" style="shape=partialRectangle;html=1;whiteSpace=wrap;connectable=0;strokeColor=#666666;overflow=hidden;fillColor=#f5f5f5;top=0;left=0;bottom=0;right=0;pointerEvents=1;fontSize=16;fontColor=#333333;" vertex="1" visible="0" parent="tqfpcxPNvMQN-E41AzFX-434">
          <mxGeometry x="420" width="10" height="20" as="geometry">
            <mxRectangle width="10" height="20" as="alternateBounds" />
          </mxGeometry>
        </mxCell>
        <mxCell id="tqfpcxPNvMQN-E41AzFX-494" style="shape=partialRectangle;html=1;whiteSpace=wrap;connectable=0;strokeColor=#666666;overflow=hidden;fillColor=#f5f5f5;top=0;left=0;bottom=0;right=0;pointerEvents=1;fontSize=16;fontColor=#333333;" vertex="1" visible="0" parent="tqfpcxPNvMQN-E41AzFX-434">
          <mxGeometry x="430" width="10" height="20" as="geometry">
            <mxRectangle width="10" height="20" as="alternateBounds" />
          </mxGeometry>
        </mxCell>
        <mxCell id="tqfpcxPNvMQN-E41AzFX-495" value="0" style="shape=partialRectangle;html=1;whiteSpace=wrap;connectable=0;strokeColor=#666666;overflow=hidden;fillColor=none;top=0;left=0;bottom=0;right=1;pointerEvents=1;fontSize=16;rowspan=1;colspan=4;align=right;fontColor=#333333;" vertex="1" parent="tqfpcxPNvMQN-E41AzFX-434">
          <mxGeometry x="440" width="40" height="20" as="geometry">
            <mxRectangle width="10" height="20" as="alternateBounds" />
          </mxGeometry>
        </mxCell>
        <mxCell id="tqfpcxPNvMQN-E41AzFX-496" style="shape=partialRectangle;html=1;whiteSpace=wrap;connectable=0;strokeColor=inherit;overflow=hidden;fillColor=none;top=0;left=0;bottom=0;right=0;pointerEvents=1;fontSize=16;" vertex="1" visible="0" parent="tqfpcxPNvMQN-E41AzFX-434">
          <mxGeometry x="450" width="10" height="20" as="geometry">
            <mxRectangle width="10" height="20" as="alternateBounds" />
          </mxGeometry>
        </mxCell>
        <mxCell id="tqfpcxPNvMQN-E41AzFX-497" style="shape=partialRectangle;html=1;whiteSpace=wrap;connectable=0;strokeColor=inherit;overflow=hidden;fillColor=none;top=0;left=0;bottom=0;right=0;pointerEvents=1;fontSize=16;" vertex="1" visible="0" parent="tqfpcxPNvMQN-E41AzFX-434">
          <mxGeometry x="460" width="10" height="20" as="geometry">
            <mxRectangle width="10" height="20" as="alternateBounds" />
          </mxGeometry>
        </mxCell>
        <mxCell id="tqfpcxPNvMQN-E41AzFX-498" style="shape=partialRectangle;html=1;whiteSpace=wrap;connectable=0;strokeColor=inherit;overflow=hidden;fillColor=none;top=0;left=0;bottom=0;right=0;pointerEvents=1;fontSize=16;" vertex="1" visible="0" parent="tqfpcxPNvMQN-E41AzFX-434">
          <mxGeometry x="470" width="10" height="20" as="geometry">
            <mxRectangle width="10" height="20" as="alternateBounds" />
          </mxGeometry>
        </mxCell>
        <mxCell id="tqfpcxPNvMQN-E41AzFX-362" value="" style="shape=tableRow;horizontal=0;startSize=0;swimlaneHead=0;swimlaneBody=0;strokeColor=inherit;top=0;left=0;bottom=0;right=0;collapsible=0;dropTarget=0;fillColor=none;points=[[0,0.5],[1,0.5]];portConstraint=eastwest;fontSize=16;" vertex="1" parent="tqfpcxPNvMQN-E41AzFX-353">
          <mxGeometry y="20" width="480" height="40" as="geometry" />
        </mxCell>
        <mxCell id="tqfpcxPNvMQN-E41AzFX-363" value="" style="shape=partialRectangle;html=1;whiteSpace=wrap;connectable=0;strokeColor=inherit;overflow=hidden;fillColor=none;top=0;left=0;bottom=0;right=0;pointerEvents=1;fontSize=16;" vertex="1" parent="tqfpcxPNvMQN-E41AzFX-362">
          <mxGeometry height="40" as="geometry">
            <mxRectangle height="40" as="alternateBounds" />
          </mxGeometry>
        </mxCell>
        <mxCell id="tqfpcxPNvMQN-E41AzFX-414" style="shape=partialRectangle;html=1;whiteSpace=wrap;connectable=0;strokeColor=inherit;overflow=hidden;fillColor=none;top=0;left=0;bottom=0;right=0;pointerEvents=1;fontSize=16;" vertex="1" parent="tqfpcxPNvMQN-E41AzFX-362">
          <mxGeometry height="40" as="geometry">
            <mxRectangle height="40" as="alternateBounds" />
          </mxGeometry>
        </mxCell>
        <mxCell id="tqfpcxPNvMQN-E41AzFX-410" value="p4" style="shape=partialRectangle;html=1;whiteSpace=wrap;connectable=1;strokeColor=#666666;overflow=hidden;fillColor=#f5f5f5;top=1;left=1;bottom=1;right=1;pointerEvents=1;fontSize=16;rowspan=1;colspan=9;fontColor=#333333;shadow=1;" vertex="1" parent="tqfpcxPNvMQN-E41AzFX-362">
          <mxGeometry width="90" height="40" as="geometry">
            <mxRectangle width="10" height="40" as="alternateBounds" />
          </mxGeometry>
        </mxCell>
        <mxCell id="tqfpcxPNvMQN-E41AzFX-409" style="shape=partialRectangle;html=1;whiteSpace=wrap;connectable=0;strokeColor=#666666;overflow=hidden;fillColor=#f5f5f5;top=1;left=0;bottom=0;right=0;pointerEvents=1;fontSize=16;fontColor=#333333;shadow=1;" vertex="1" visible="0" parent="tqfpcxPNvMQN-E41AzFX-362">
          <mxGeometry x="10" width="10" height="40" as="geometry">
            <mxRectangle width="10" height="40" as="alternateBounds" />
          </mxGeometry>
        </mxCell>
        <mxCell id="tqfpcxPNvMQN-E41AzFX-408" style="shape=partialRectangle;html=1;whiteSpace=wrap;connectable=0;strokeColor=#666666;overflow=hidden;fillColor=#f5f5f5;top=1;left=0;bottom=0;right=0;pointerEvents=1;fontSize=16;fontColor=#333333;shadow=1;" vertex="1" visible="0" parent="tqfpcxPNvMQN-E41AzFX-362">
          <mxGeometry x="20" width="10" height="40" as="geometry">
            <mxRectangle width="10" height="40" as="alternateBounds" />
          </mxGeometry>
        </mxCell>
        <mxCell id="tqfpcxPNvMQN-E41AzFX-407" style="shape=partialRectangle;html=1;whiteSpace=wrap;connectable=0;strokeColor=#666666;overflow=hidden;fillColor=#f5f5f5;top=1;left=0;bottom=0;right=0;pointerEvents=1;fontSize=16;fontColor=#333333;shadow=1;" vertex="1" visible="0" parent="tqfpcxPNvMQN-E41AzFX-362">
          <mxGeometry x="30" width="10" height="40" as="geometry">
            <mxRectangle width="10" height="40" as="alternateBounds" />
          </mxGeometry>
        </mxCell>
        <mxCell id="tqfpcxPNvMQN-E41AzFX-406" style="shape=partialRectangle;html=1;whiteSpace=wrap;connectable=0;strokeColor=#666666;overflow=hidden;fillColor=#f5f5f5;top=1;left=0;bottom=0;right=0;pointerEvents=1;fontSize=16;fontColor=#333333;shadow=1;" vertex="1" visible="0" parent="tqfpcxPNvMQN-E41AzFX-362">
          <mxGeometry x="40" width="10" height="40" as="geometry">
            <mxRectangle width="10" height="40" as="alternateBounds" />
          </mxGeometry>
        </mxCell>
        <mxCell id="tqfpcxPNvMQN-E41AzFX-405" style="shape=partialRectangle;html=1;whiteSpace=wrap;connectable=0;strokeColor=#666666;overflow=hidden;fillColor=#f5f5f5;top=1;left=0;bottom=0;right=0;pointerEvents=1;fontSize=16;fontColor=#333333;shadow=1;" vertex="1" visible="0" parent="tqfpcxPNvMQN-E41AzFX-362">
          <mxGeometry x="50" width="10" height="40" as="geometry">
            <mxRectangle width="10" height="40" as="alternateBounds" />
          </mxGeometry>
        </mxCell>
        <mxCell id="tqfpcxPNvMQN-E41AzFX-404" style="shape=partialRectangle;html=1;whiteSpace=wrap;connectable=0;strokeColor=#666666;overflow=hidden;fillColor=#f5f5f5;top=1;left=0;bottom=0;right=0;pointerEvents=1;fontSize=16;fontColor=#333333;shadow=1;" vertex="1" visible="0" parent="tqfpcxPNvMQN-E41AzFX-362">
          <mxGeometry x="60" width="10" height="40" as="geometry">
            <mxRectangle width="10" height="40" as="alternateBounds" />
          </mxGeometry>
        </mxCell>
        <mxCell id="tqfpcxPNvMQN-E41AzFX-403" style="shape=partialRectangle;html=1;whiteSpace=wrap;connectable=0;strokeColor=#666666;overflow=hidden;fillColor=#f5f5f5;top=1;left=0;bottom=0;right=0;pointerEvents=1;fontSize=16;fontColor=#333333;shadow=1;" vertex="1" visible="0" parent="tqfpcxPNvMQN-E41AzFX-362">
          <mxGeometry x="70" width="10" height="40" as="geometry">
            <mxRectangle width="10" height="40" as="alternateBounds" />
          </mxGeometry>
        </mxCell>
        <mxCell id="tqfpcxPNvMQN-E41AzFX-402" style="shape=partialRectangle;html=1;whiteSpace=wrap;connectable=0;strokeColor=#666666;overflow=hidden;fillColor=#f5f5f5;top=1;left=0;bottom=0;right=0;pointerEvents=1;fontSize=16;fontColor=#333333;shadow=1;" vertex="1" visible="0" parent="tqfpcxPNvMQN-E41AzFX-362">
          <mxGeometry x="80" width="10" height="40" as="geometry">
            <mxRectangle width="10" height="40" as="alternateBounds" />
          </mxGeometry>
        </mxCell>
        <mxCell id="tqfpcxPNvMQN-E41AzFX-401" value="p3" style="shape=partialRectangle;html=1;whiteSpace=wrap;connectable=1;strokeColor=#666666;overflow=hidden;fillColor=#f5f5f5;top=1;left=1;bottom=1;right=1;pointerEvents=1;fontSize=16;rowspan=1;colspan=9;fontColor=#333333;shadow=1;" vertex="1" parent="tqfpcxPNvMQN-E41AzFX-362">
          <mxGeometry x="90" width="90" height="40" as="geometry">
            <mxRectangle width="10" height="40" as="alternateBounds" />
          </mxGeometry>
        </mxCell>
        <mxCell id="tqfpcxPNvMQN-E41AzFX-400" style="shape=partialRectangle;html=1;whiteSpace=wrap;connectable=1;strokeColor=#666666;overflow=hidden;fillColor=#f5f5f5;top=1;left=0;bottom=0;right=0;pointerEvents=1;fontSize=16;fontColor=#333333;shadow=1;" vertex="1" visible="0" parent="tqfpcxPNvMQN-E41AzFX-362">
          <mxGeometry x="100" width="10" height="40" as="geometry">
            <mxRectangle width="10" height="40" as="alternateBounds" />
          </mxGeometry>
        </mxCell>
        <mxCell id="tqfpcxPNvMQN-E41AzFX-399" style="shape=partialRectangle;html=1;whiteSpace=wrap;connectable=1;strokeColor=#666666;overflow=hidden;fillColor=#f5f5f5;top=1;left=0;bottom=0;right=0;pointerEvents=1;fontSize=16;fontColor=#333333;shadow=1;" vertex="1" visible="0" parent="tqfpcxPNvMQN-E41AzFX-362">
          <mxGeometry x="110" width="10" height="40" as="geometry">
            <mxRectangle width="10" height="40" as="alternateBounds" />
          </mxGeometry>
        </mxCell>
        <mxCell id="tqfpcxPNvMQN-E41AzFX-398" style="shape=partialRectangle;html=1;whiteSpace=wrap;connectable=1;strokeColor=#666666;overflow=hidden;fillColor=#f5f5f5;top=1;left=0;bottom=0;right=0;pointerEvents=1;fontSize=16;fontColor=#333333;shadow=1;" vertex="1" visible="0" parent="tqfpcxPNvMQN-E41AzFX-362">
          <mxGeometry x="120" width="10" height="40" as="geometry">
            <mxRectangle width="10" height="40" as="alternateBounds" />
          </mxGeometry>
        </mxCell>
        <mxCell id="tqfpcxPNvMQN-E41AzFX-397" style="shape=partialRectangle;html=1;whiteSpace=wrap;connectable=1;strokeColor=#666666;overflow=hidden;fillColor=#f5f5f5;top=1;left=0;bottom=0;right=0;pointerEvents=1;fontSize=16;fontColor=#333333;shadow=1;" vertex="1" visible="0" parent="tqfpcxPNvMQN-E41AzFX-362">
          <mxGeometry x="130" width="10" height="40" as="geometry">
            <mxRectangle width="10" height="40" as="alternateBounds" />
          </mxGeometry>
        </mxCell>
        <mxCell id="tqfpcxPNvMQN-E41AzFX-396" style="shape=partialRectangle;html=1;whiteSpace=wrap;connectable=1;strokeColor=#666666;overflow=hidden;fillColor=#f5f5f5;top=1;left=0;bottom=0;right=0;pointerEvents=1;fontSize=16;fontColor=#333333;shadow=1;" vertex="1" visible="0" parent="tqfpcxPNvMQN-E41AzFX-362">
          <mxGeometry x="140" width="10" height="40" as="geometry">
            <mxRectangle width="10" height="40" as="alternateBounds" />
          </mxGeometry>
        </mxCell>
        <mxCell id="tqfpcxPNvMQN-E41AzFX-395" style="shape=partialRectangle;html=1;whiteSpace=wrap;connectable=1;strokeColor=#666666;overflow=hidden;fillColor=#f5f5f5;top=1;left=0;bottom=0;right=0;pointerEvents=1;fontSize=16;fontColor=#333333;shadow=1;" vertex="1" visible="0" parent="tqfpcxPNvMQN-E41AzFX-362">
          <mxGeometry x="150" width="10" height="40" as="geometry">
            <mxRectangle width="10" height="40" as="alternateBounds" />
          </mxGeometry>
        </mxCell>
        <mxCell id="tqfpcxPNvMQN-E41AzFX-394" style="shape=partialRectangle;html=1;whiteSpace=wrap;connectable=1;strokeColor=#666666;overflow=hidden;fillColor=#f5f5f5;top=1;left=0;bottom=0;right=0;pointerEvents=1;fontSize=16;fontColor=#333333;shadow=1;" vertex="1" visible="0" parent="tqfpcxPNvMQN-E41AzFX-362">
          <mxGeometry x="160" width="10" height="40" as="geometry">
            <mxRectangle width="10" height="40" as="alternateBounds" />
          </mxGeometry>
        </mxCell>
        <mxCell id="tqfpcxPNvMQN-E41AzFX-393" style="shape=partialRectangle;html=1;whiteSpace=wrap;connectable=1;strokeColor=#666666;overflow=hidden;fillColor=#f5f5f5;top=1;left=0;bottom=0;right=0;pointerEvents=1;fontSize=16;fontColor=#333333;shadow=1;" vertex="1" visible="0" parent="tqfpcxPNvMQN-E41AzFX-362">
          <mxGeometry x="170" width="10" height="40" as="geometry">
            <mxRectangle width="10" height="40" as="alternateBounds" />
          </mxGeometry>
        </mxCell>
        <mxCell id="tqfpcxPNvMQN-E41AzFX-392" value="p2" style="shape=partialRectangle;html=1;whiteSpace=wrap;connectable=1;strokeColor=#666666;overflow=hidden;fillColor=#f5f5f5;top=1;left=1;bottom=1;right=1;pointerEvents=1;fontSize=16;rowspan=1;colspan=9;fontColor=#333333;shadow=1;" vertex="1" parent="tqfpcxPNvMQN-E41AzFX-362">
          <mxGeometry x="180" width="90" height="40" as="geometry">
            <mxRectangle width="10" height="40" as="alternateBounds" />
          </mxGeometry>
        </mxCell>
        <mxCell id="tqfpcxPNvMQN-E41AzFX-391" style="shape=partialRectangle;html=1;whiteSpace=wrap;connectable=1;strokeColor=#666666;overflow=hidden;fillColor=#f5f5f5;top=1;left=0;bottom=0;right=0;pointerEvents=1;fontSize=16;fontColor=#333333;shadow=1;" vertex="1" visible="0" parent="tqfpcxPNvMQN-E41AzFX-362">
          <mxGeometry x="190" width="10" height="40" as="geometry">
            <mxRectangle width="10" height="40" as="alternateBounds" />
          </mxGeometry>
        </mxCell>
        <mxCell id="tqfpcxPNvMQN-E41AzFX-390" style="shape=partialRectangle;html=1;whiteSpace=wrap;connectable=1;strokeColor=#666666;overflow=hidden;fillColor=#f5f5f5;top=1;left=0;bottom=0;right=0;pointerEvents=1;fontSize=16;fontColor=#333333;shadow=1;" vertex="1" visible="0" parent="tqfpcxPNvMQN-E41AzFX-362">
          <mxGeometry x="200" width="10" height="40" as="geometry">
            <mxRectangle width="10" height="40" as="alternateBounds" />
          </mxGeometry>
        </mxCell>
        <mxCell id="tqfpcxPNvMQN-E41AzFX-389" style="shape=partialRectangle;html=1;whiteSpace=wrap;connectable=1;strokeColor=#666666;overflow=hidden;fillColor=#f5f5f5;top=1;left=0;bottom=0;right=0;pointerEvents=1;fontSize=16;fontColor=#333333;shadow=1;" vertex="1" visible="0" parent="tqfpcxPNvMQN-E41AzFX-362">
          <mxGeometry x="210" width="10" height="40" as="geometry">
            <mxRectangle width="10" height="40" as="alternateBounds" />
          </mxGeometry>
        </mxCell>
        <mxCell id="tqfpcxPNvMQN-E41AzFX-388" style="shape=partialRectangle;html=1;whiteSpace=wrap;connectable=1;strokeColor=#666666;overflow=hidden;fillColor=#f5f5f5;top=1;left=0;bottom=0;right=0;pointerEvents=1;fontSize=16;fontColor=#333333;shadow=1;" vertex="1" visible="0" parent="tqfpcxPNvMQN-E41AzFX-362">
          <mxGeometry x="220" width="10" height="40" as="geometry">
            <mxRectangle width="10" height="40" as="alternateBounds" />
          </mxGeometry>
        </mxCell>
        <mxCell id="tqfpcxPNvMQN-E41AzFX-387" style="shape=partialRectangle;html=1;whiteSpace=wrap;connectable=1;strokeColor=#666666;overflow=hidden;fillColor=#f5f5f5;top=1;left=0;bottom=0;right=0;pointerEvents=1;fontSize=16;fontColor=#333333;shadow=1;" vertex="1" visible="0" parent="tqfpcxPNvMQN-E41AzFX-362">
          <mxGeometry x="230" width="10" height="40" as="geometry">
            <mxRectangle width="10" height="40" as="alternateBounds" />
          </mxGeometry>
        </mxCell>
        <mxCell id="tqfpcxPNvMQN-E41AzFX-386" style="shape=partialRectangle;html=1;whiteSpace=wrap;connectable=1;strokeColor=#666666;overflow=hidden;fillColor=#f5f5f5;top=1;left=0;bottom=0;right=0;pointerEvents=1;fontSize=16;fontColor=#333333;shadow=1;" vertex="1" visible="0" parent="tqfpcxPNvMQN-E41AzFX-362">
          <mxGeometry x="240" width="10" height="40" as="geometry">
            <mxRectangle width="10" height="40" as="alternateBounds" />
          </mxGeometry>
        </mxCell>
        <mxCell id="tqfpcxPNvMQN-E41AzFX-385" style="shape=partialRectangle;html=1;whiteSpace=wrap;connectable=1;strokeColor=#666666;overflow=hidden;fillColor=#f5f5f5;top=1;left=0;bottom=0;right=0;pointerEvents=1;fontSize=16;fontColor=#333333;shadow=1;" vertex="1" visible="0" parent="tqfpcxPNvMQN-E41AzFX-362">
          <mxGeometry x="250" width="10" height="40" as="geometry">
            <mxRectangle width="10" height="40" as="alternateBounds" />
          </mxGeometry>
        </mxCell>
        <mxCell id="tqfpcxPNvMQN-E41AzFX-384" style="shape=partialRectangle;html=1;whiteSpace=wrap;connectable=1;strokeColor=#666666;overflow=hidden;fillColor=#f5f5f5;top=1;left=0;bottom=0;right=0;pointerEvents=1;fontSize=16;fontColor=#333333;shadow=1;" vertex="1" visible="0" parent="tqfpcxPNvMQN-E41AzFX-362">
          <mxGeometry x="260" width="10" height="40" as="geometry">
            <mxRectangle width="10" height="40" as="alternateBounds" />
          </mxGeometry>
        </mxCell>
        <mxCell id="tqfpcxPNvMQN-E41AzFX-383" value="p1" style="shape=partialRectangle;html=1;whiteSpace=wrap;connectable=1;strokeColor=#666666;overflow=hidden;fillColor=#f5f5f5;top=1;left=1;bottom=1;right=1;pointerEvents=1;fontSize=16;rowspan=1;colspan=9;fontColor=#333333;shadow=1;" vertex="1" parent="tqfpcxPNvMQN-E41AzFX-362">
          <mxGeometry x="270" width="90" height="40" as="geometry">
            <mxRectangle width="10" height="40" as="alternateBounds" />
          </mxGeometry>
        </mxCell>
        <mxCell id="tqfpcxPNvMQN-E41AzFX-382" style="shape=partialRectangle;html=1;whiteSpace=wrap;connectable=1;strokeColor=#666666;overflow=hidden;fillColor=#f5f5f5;top=1;left=0;bottom=0;right=0;pointerEvents=1;fontSize=16;fontColor=#333333;shadow=1;" vertex="1" visible="0" parent="tqfpcxPNvMQN-E41AzFX-362">
          <mxGeometry x="280" width="10" height="40" as="geometry">
            <mxRectangle width="10" height="40" as="alternateBounds" />
          </mxGeometry>
        </mxCell>
        <mxCell id="tqfpcxPNvMQN-E41AzFX-381" style="shape=partialRectangle;html=1;whiteSpace=wrap;connectable=1;strokeColor=#666666;overflow=hidden;fillColor=#f5f5f5;top=1;left=0;bottom=0;right=0;pointerEvents=1;fontSize=16;fontColor=#333333;shadow=1;" vertex="1" visible="0" parent="tqfpcxPNvMQN-E41AzFX-362">
          <mxGeometry x="290" width="10" height="40" as="geometry">
            <mxRectangle width="10" height="40" as="alternateBounds" />
          </mxGeometry>
        </mxCell>
        <mxCell id="tqfpcxPNvMQN-E41AzFX-380" style="shape=partialRectangle;html=1;whiteSpace=wrap;connectable=1;strokeColor=#666666;overflow=hidden;fillColor=#f5f5f5;top=1;left=0;bottom=0;right=0;pointerEvents=1;fontSize=16;fontColor=#333333;shadow=1;" vertex="1" visible="0" parent="tqfpcxPNvMQN-E41AzFX-362">
          <mxGeometry x="300" width="10" height="40" as="geometry">
            <mxRectangle width="10" height="40" as="alternateBounds" />
          </mxGeometry>
        </mxCell>
        <mxCell id="tqfpcxPNvMQN-E41AzFX-379" style="shape=partialRectangle;html=1;whiteSpace=wrap;connectable=1;strokeColor=#666666;overflow=hidden;fillColor=#f5f5f5;top=1;left=0;bottom=0;right=0;pointerEvents=1;fontSize=16;fontColor=#333333;shadow=1;" vertex="1" visible="0" parent="tqfpcxPNvMQN-E41AzFX-362">
          <mxGeometry x="310" width="10" height="40" as="geometry">
            <mxRectangle width="10" height="40" as="alternateBounds" />
          </mxGeometry>
        </mxCell>
        <mxCell id="tqfpcxPNvMQN-E41AzFX-378" style="shape=partialRectangle;html=1;whiteSpace=wrap;connectable=1;strokeColor=#666666;overflow=hidden;fillColor=#f5f5f5;top=1;left=0;bottom=0;right=0;pointerEvents=1;fontSize=16;fontColor=#333333;shadow=1;" vertex="1" visible="0" parent="tqfpcxPNvMQN-E41AzFX-362">
          <mxGeometry x="320" width="10" height="40" as="geometry">
            <mxRectangle width="10" height="40" as="alternateBounds" />
          </mxGeometry>
        </mxCell>
        <mxCell id="tqfpcxPNvMQN-E41AzFX-377" style="shape=partialRectangle;html=1;whiteSpace=wrap;connectable=1;strokeColor=#666666;overflow=hidden;fillColor=#f5f5f5;top=1;left=0;bottom=0;right=0;pointerEvents=1;fontSize=16;fontColor=#333333;shadow=1;" vertex="1" visible="0" parent="tqfpcxPNvMQN-E41AzFX-362">
          <mxGeometry x="330" width="10" height="40" as="geometry">
            <mxRectangle width="10" height="40" as="alternateBounds" />
          </mxGeometry>
        </mxCell>
        <mxCell id="tqfpcxPNvMQN-E41AzFX-376" style="shape=partialRectangle;html=1;whiteSpace=wrap;connectable=1;strokeColor=#666666;overflow=hidden;fillColor=#f5f5f5;top=1;left=0;bottom=0;right=0;pointerEvents=1;fontSize=16;fontColor=#333333;shadow=1;" vertex="1" visible="0" parent="tqfpcxPNvMQN-E41AzFX-362">
          <mxGeometry x="340" width="10" height="40" as="geometry">
            <mxRectangle width="10" height="40" as="alternateBounds" />
          </mxGeometry>
        </mxCell>
        <mxCell id="tqfpcxPNvMQN-E41AzFX-375" style="shape=partialRectangle;html=1;whiteSpace=wrap;connectable=1;strokeColor=#666666;overflow=hidden;fillColor=#f5f5f5;top=1;left=0;bottom=0;right=0;pointerEvents=1;fontSize=16;fontColor=#333333;shadow=1;" vertex="1" visible="0" parent="tqfpcxPNvMQN-E41AzFX-362">
          <mxGeometry x="350" width="10" height="40" as="geometry">
            <mxRectangle width="10" height="40" as="alternateBounds" />
          </mxGeometry>
        </mxCell>
        <mxCell id="tqfpcxPNvMQN-E41AzFX-374" value="d" style="shape=partialRectangle;html=1;whiteSpace=wrap;connectable=1;strokeColor=#666666;overflow=hidden;fillColor=#f5f5f5;top=1;left=1;bottom=1;right=1;pointerEvents=1;fontSize=16;rowspan=1;colspan=12;fontColor=#333333;shadow=1;" vertex="1" parent="tqfpcxPNvMQN-E41AzFX-362">
          <mxGeometry x="360" width="120" height="40" as="geometry">
            <mxRectangle width="10" height="40" as="alternateBounds" />
          </mxGeometry>
        </mxCell>
        <mxCell id="tqfpcxPNvMQN-E41AzFX-373" style="shape=partialRectangle;html=1;whiteSpace=wrap;connectable=0;strokeColor=inherit;overflow=hidden;fillColor=none;top=0;left=0;bottom=0;right=0;pointerEvents=1;fontSize=16;" vertex="1" visible="0" parent="tqfpcxPNvMQN-E41AzFX-362">
          <mxGeometry x="370" width="10" height="40" as="geometry">
            <mxRectangle width="10" height="40" as="alternateBounds" />
          </mxGeometry>
        </mxCell>
        <mxCell id="tqfpcxPNvMQN-E41AzFX-372" style="shape=partialRectangle;html=1;whiteSpace=wrap;connectable=0;strokeColor=inherit;overflow=hidden;fillColor=none;top=0;left=0;bottom=0;right=0;pointerEvents=1;fontSize=16;" vertex="1" visible="0" parent="tqfpcxPNvMQN-E41AzFX-362">
          <mxGeometry x="380" width="10" height="40" as="geometry">
            <mxRectangle width="10" height="40" as="alternateBounds" />
          </mxGeometry>
        </mxCell>
        <mxCell id="tqfpcxPNvMQN-E41AzFX-371" style="shape=partialRectangle;html=1;whiteSpace=wrap;connectable=0;strokeColor=inherit;overflow=hidden;fillColor=none;top=0;left=0;bottom=0;right=0;pointerEvents=1;fontSize=16;" vertex="1" visible="0" parent="tqfpcxPNvMQN-E41AzFX-362">
          <mxGeometry x="390" width="10" height="40" as="geometry">
            <mxRectangle width="10" height="40" as="alternateBounds" />
          </mxGeometry>
        </mxCell>
        <mxCell id="tqfpcxPNvMQN-E41AzFX-370" style="shape=partialRectangle;html=1;whiteSpace=wrap;connectable=0;strokeColor=inherit;overflow=hidden;fillColor=none;top=0;left=0;bottom=0;right=0;pointerEvents=1;fontSize=16;" vertex="1" visible="0" parent="tqfpcxPNvMQN-E41AzFX-362">
          <mxGeometry x="400" width="10" height="40" as="geometry">
            <mxRectangle width="10" height="40" as="alternateBounds" />
          </mxGeometry>
        </mxCell>
        <mxCell id="tqfpcxPNvMQN-E41AzFX-427" style="shape=partialRectangle;html=1;whiteSpace=wrap;connectable=0;strokeColor=inherit;overflow=hidden;fillColor=none;top=0;left=0;bottom=0;right=0;pointerEvents=1;fontSize=16;" vertex="1" visible="0" parent="tqfpcxPNvMQN-E41AzFX-362">
          <mxGeometry x="410" width="10" height="40" as="geometry">
            <mxRectangle width="10" height="40" as="alternateBounds" />
          </mxGeometry>
        </mxCell>
        <mxCell id="tqfpcxPNvMQN-E41AzFX-428" style="shape=partialRectangle;html=1;whiteSpace=wrap;connectable=0;strokeColor=inherit;overflow=hidden;fillColor=none;top=0;left=0;bottom=0;right=0;pointerEvents=1;fontSize=16;" vertex="1" visible="0" parent="tqfpcxPNvMQN-E41AzFX-362">
          <mxGeometry x="420" width="10" height="40" as="geometry">
            <mxRectangle width="10" height="40" as="alternateBounds" />
          </mxGeometry>
        </mxCell>
        <mxCell id="tqfpcxPNvMQN-E41AzFX-429" style="shape=partialRectangle;html=1;whiteSpace=wrap;connectable=0;strokeColor=inherit;overflow=hidden;fillColor=none;top=0;left=0;bottom=0;right=0;pointerEvents=1;fontSize=16;" vertex="1" visible="0" parent="tqfpcxPNvMQN-E41AzFX-362">
          <mxGeometry x="430" width="10" height="40" as="geometry">
            <mxRectangle width="10" height="40" as="alternateBounds" />
          </mxGeometry>
        </mxCell>
        <mxCell id="tqfpcxPNvMQN-E41AzFX-430" style="shape=partialRectangle;html=1;whiteSpace=wrap;connectable=0;strokeColor=inherit;overflow=hidden;fillColor=none;top=0;left=0;bottom=0;right=0;pointerEvents=1;fontSize=16;" vertex="1" visible="0" parent="tqfpcxPNvMQN-E41AzFX-362">
          <mxGeometry x="440" width="10" height="40" as="geometry">
            <mxRectangle width="10" height="40" as="alternateBounds" />
          </mxGeometry>
        </mxCell>
        <mxCell id="tqfpcxPNvMQN-E41AzFX-431" style="shape=partialRectangle;html=1;whiteSpace=wrap;connectable=0;strokeColor=inherit;overflow=hidden;fillColor=none;top=0;left=0;bottom=0;right=0;pointerEvents=1;fontSize=16;" vertex="1" visible="0" parent="tqfpcxPNvMQN-E41AzFX-362">
          <mxGeometry x="450" width="10" height="40" as="geometry">
            <mxRectangle width="10" height="40" as="alternateBounds" />
          </mxGeometry>
        </mxCell>
        <mxCell id="tqfpcxPNvMQN-E41AzFX-432" style="shape=partialRectangle;html=1;whiteSpace=wrap;connectable=0;strokeColor=inherit;overflow=hidden;fillColor=none;top=0;left=0;bottom=0;right=0;pointerEvents=1;fontSize=16;" vertex="1" visible="0" parent="tqfpcxPNvMQN-E41AzFX-362">
          <mxGeometry x="460" width="10" height="40" as="geometry">
            <mxRectangle width="10" height="40" as="alternateBounds" />
          </mxGeometry>
        </mxCell>
        <mxCell id="tqfpcxPNvMQN-E41AzFX-433" style="shape=partialRectangle;html=1;whiteSpace=wrap;connectable=0;strokeColor=inherit;overflow=hidden;fillColor=none;top=0;left=0;bottom=0;right=0;pointerEvents=1;fontSize=16;" vertex="1" visible="0" parent="tqfpcxPNvMQN-E41AzFX-362">
          <mxGeometry x="470" width="10" height="40" as="geometry">
            <mxRectangle width="10" height="40" as="alternateBounds" />
          </mxGeometry>
        </mxCell>
        <mxCell id="tqfpcxPNvMQN-E41AzFX-636" value="" style="group" vertex="1" connectable="0" parent="1">
          <mxGeometry x="80" y="190" width="90" height="120" as="geometry" />
        </mxCell>
        <mxCell id="tqfpcxPNvMQN-E41AzFX-635" value="p4" style="text;html=1;align=right;verticalAlign=middle;whiteSpace=wrap;rounded=0;" vertex="1" parent="tqfpcxPNvMQN-E41AzFX-636">
          <mxGeometry y="75" width="15.000000000000002" height="30" as="geometry" />
        </mxCell>
        <mxCell id="tqfpcxPNvMQN-E41AzFX-601" value="Table P4" style="swimlane;fontStyle=0;childLayout=stackLayout;horizontal=1;startSize=20;horizontalStack=0;resizeParent=1;resizeParentMax=0;resizeLast=0;collapsible=1;marginBottom=0;whiteSpace=wrap;html=1;strokeColor=none;fillColor=none;" vertex="1" parent="tqfpcxPNvMQN-E41AzFX-636">
          <mxGeometry x="21.666666666666668" width="53.33333333333334" height="120" as="geometry">
            <mxRectangle x="6.666666666666668" width="60" height="30" as="alternateBounds" />
          </mxGeometry>
        </mxCell>
        <mxCell id="tqfpcxPNvMQN-E41AzFX-602" value="" style="text;strokeColor=#6c8ebf;fillColor=#dae8fc;align=left;verticalAlign=middle;spacingLeft=4;spacingRight=4;overflow=hidden;points=[[0,0.5],[1,0.5]];portConstraint=eastwest;rotatable=0;whiteSpace=wrap;html=1;textShadow=1;shadow=1;" vertex="1" parent="tqfpcxPNvMQN-E41AzFX-601">
          <mxGeometry y="20" width="53.33333333333334" height="30" as="geometry" />
        </mxCell>
        <mxCell id="tqfpcxPNvMQN-E41AzFX-603" value="" style="text;strokeColor=#666666;fillColor=#f5f5f5;align=center;verticalAlign=middle;spacingLeft=0;spacingRight=0;overflow=hidden;portConstraint=eastwest;rotatable=0;fontColor=#333333;points=[[0,0,0,0,0],[0,0.5,0,0,0],[0,1,0,0,0],[0.25,0,0,0,0],[0.25,1,0,0,0],[0.5,0,0,0,0],[0.5,1,0,0,0],[0.75,0,0,0,0],[0.75,1,0,0,0],[1,0,0,0,0],[1,0.5,0,0,0],[1,1,0,0,0]];textShadow=0;shadow=1;whiteSpace=wrap;html=1;horizontal=1;fontSize=8;labelPosition=center;verticalLabelPosition=middle;" vertex="1" parent="tqfpcxPNvMQN-E41AzFX-601">
          <mxGeometry y="50" width="53.33333333333334" height="10" as="geometry" />
        </mxCell>
        <mxCell id="tqfpcxPNvMQN-E41AzFX-604" value="" style="text;strokeColor=#6c8ebf;fillColor=#dae8fc;align=left;verticalAlign=middle;spacingLeft=4;spacingRight=4;overflow=hidden;points=[[0,0.5],[1,0.5]];portConstraint=eastwest;rotatable=0;whiteSpace=wrap;html=1;textShadow=1;shadow=1;" vertex="1" parent="tqfpcxPNvMQN-E41AzFX-601">
          <mxGeometry y="60" width="53.33333333333334" height="60" as="geometry" />
        </mxCell>
        <mxCell id="tqfpcxPNvMQN-E41AzFX-620" value="" style="shape=curlyBracket;whiteSpace=wrap;html=1;rounded=1;labelPosition=left;verticalLabelPosition=middle;align=right;verticalAlign=middle;" vertex="1" parent="tqfpcxPNvMQN-E41AzFX-636">
          <mxGeometry x="15" y="60" width="6.666666666666668" height="60" as="geometry" />
        </mxCell>
        <mxCell id="tqfpcxPNvMQN-E41AzFX-656" value="" style="endArrow=classic;html=1;rounded=0;exitX=0.5;exitY=1;exitDx=0;exitDy=0;entryX=0;entryY=0.5;entryDx=0;entryDy=0;entryPerimeter=0;edgeStyle=orthogonalEdgeStyle;" edge="1" parent="1" source="tqfpcxPNvMQN-E41AzFX-410" target="tqfpcxPNvMQN-E41AzFX-603">
          <mxGeometry width="50" height="50" relative="1" as="geometry">
            <mxPoint x="30" y="230" as="sourcePoint" />
            <mxPoint x="90" y="220" as="targetPoint" />
          </mxGeometry>
        </mxCell>
        <mxCell id="tqfpcxPNvMQN-E41AzFX-670" value="" style="group" vertex="1" connectable="0" parent="1">
          <mxGeometry x="170" y="200" width="90" height="120" as="geometry" />
        </mxCell>
        <mxCell id="tqfpcxPNvMQN-E41AzFX-671" value="p3" style="text;html=1;align=right;verticalAlign=middle;whiteSpace=wrap;rounded=0;" vertex="1" parent="tqfpcxPNvMQN-E41AzFX-670">
          <mxGeometry y="75" width="15.000000000000002" height="30" as="geometry" />
        </mxCell>
        <mxCell id="tqfpcxPNvMQN-E41AzFX-672" value="Table P3" style="swimlane;fontStyle=0;childLayout=stackLayout;horizontal=1;startSize=20;horizontalStack=0;resizeParent=1;resizeParentMax=0;resizeLast=0;collapsible=1;marginBottom=0;whiteSpace=wrap;html=1;strokeColor=none;fillColor=none;" vertex="1" parent="tqfpcxPNvMQN-E41AzFX-670">
          <mxGeometry x="21.666666666666668" width="53.33333333333334" height="120" as="geometry">
            <mxRectangle x="6.666666666666668" width="60" height="30" as="alternateBounds" />
          </mxGeometry>
        </mxCell>
        <mxCell id="tqfpcxPNvMQN-E41AzFX-673" value="" style="text;strokeColor=#6c8ebf;fillColor=#dae8fc;align=left;verticalAlign=middle;spacingLeft=4;spacingRight=4;overflow=hidden;points=[[0,0.5],[1,0.5]];portConstraint=eastwest;rotatable=0;whiteSpace=wrap;html=1;textShadow=1;shadow=1;" vertex="1" parent="tqfpcxPNvMQN-E41AzFX-672">
          <mxGeometry y="20" width="53.33333333333334" height="30" as="geometry" />
        </mxCell>
        <mxCell id="tqfpcxPNvMQN-E41AzFX-674" value="" style="text;strokeColor=#666666;fillColor=#f5f5f5;align=left;verticalAlign=middle;spacingLeft=4;spacingRight=4;overflow=hidden;portConstraint=eastwest;rotatable=0;whiteSpace=wrap;html=1;fontColor=#333333;points=[[0,0,0,0,0],[0,0.5,0,0,0],[0,1,0,0,0],[0.25,0,0,0,0],[0.25,1,0,0,0],[0.5,0,0,0,0],[0.5,1,0,0,0],[0.75,0,0,0,0],[0.75,1,0,0,0],[1,0,0,0,0],[1,0.5,0,0,0],[1,1,0,0,0]];textShadow=1;shadow=1;" vertex="1" parent="tqfpcxPNvMQN-E41AzFX-672">
          <mxGeometry y="50" width="53.33333333333334" height="10" as="geometry" />
        </mxCell>
        <mxCell id="tqfpcxPNvMQN-E41AzFX-675" value="" style="text;strokeColor=#6c8ebf;fillColor=#dae8fc;align=left;verticalAlign=middle;spacingLeft=4;spacingRight=4;overflow=hidden;points=[[0,0.5],[1,0.5]];portConstraint=eastwest;rotatable=0;whiteSpace=wrap;html=1;textShadow=1;shadow=1;" vertex="1" parent="tqfpcxPNvMQN-E41AzFX-672">
          <mxGeometry y="60" width="53.33333333333334" height="60" as="geometry" />
        </mxCell>
        <mxCell id="tqfpcxPNvMQN-E41AzFX-676" value="" style="shape=curlyBracket;whiteSpace=wrap;html=1;rounded=1;labelPosition=left;verticalLabelPosition=middle;align=right;verticalAlign=middle;" vertex="1" parent="tqfpcxPNvMQN-E41AzFX-670">
          <mxGeometry x="15" y="60" width="6.666666666666668" height="60" as="geometry" />
        </mxCell>
        <mxCell id="tqfpcxPNvMQN-E41AzFX-677" value="" style="endArrow=classic;html=1;rounded=0;exitX=0.5;exitY=1;exitDx=0;exitDy=0;entryX=0;entryY=0.5;entryDx=0;entryDy=0;entryPerimeter=0;edgeStyle=orthogonalEdgeStyle;" edge="1" parent="1" source="tqfpcxPNvMQN-E41AzFX-401" target="tqfpcxPNvMQN-E41AzFX-674">
          <mxGeometry width="50" height="50" relative="1" as="geometry">
            <mxPoint x="110" y="240" as="sourcePoint" />
            <mxPoint x="127" y="305" as="targetPoint" />
          </mxGeometry>
        </mxCell>
        <mxCell id="tqfpcxPNvMQN-E41AzFX-678" value="" style="endArrow=classic;html=1;rounded=0;exitX=1;exitY=0.5;exitDx=0;exitDy=0;entryX=0;entryY=1;entryDx=0;entryDy=0;edgeStyle=orthogonalEdgeStyle;exitPerimeter=0;" edge="1" parent="1" source="tqfpcxPNvMQN-E41AzFX-603" target="tqfpcxPNvMQN-E41AzFX-672">
          <mxGeometry width="50" height="50" relative="1" as="geometry">
            <mxPoint x="170" y="210" as="sourcePoint" />
            <mxPoint x="187" y="285" as="targetPoint" />
            <Array as="points">
              <mxPoint x="160" y="245" />
              <mxPoint x="160" y="320" />
            </Array>
          </mxGeometry>
        </mxCell>
        <mxCell id="tqfpcxPNvMQN-E41AzFX-679" value="" style="group" vertex="1" connectable="0" parent="1">
          <mxGeometry x="260" y="210" width="90" height="120" as="geometry" />
        </mxCell>
        <mxCell id="tqfpcxPNvMQN-E41AzFX-680" value="p2" style="text;html=1;align=right;verticalAlign=middle;whiteSpace=wrap;rounded=0;" vertex="1" parent="tqfpcxPNvMQN-E41AzFX-679">
          <mxGeometry y="75" width="15.000000000000002" height="30" as="geometry" />
        </mxCell>
        <mxCell id="tqfpcxPNvMQN-E41AzFX-681" value="Table P2" style="swimlane;fontStyle=0;childLayout=stackLayout;horizontal=1;startSize=20;horizontalStack=0;resizeParent=1;resizeParentMax=0;resizeLast=0;collapsible=1;marginBottom=0;whiteSpace=wrap;html=1;strokeColor=none;fillColor=none;" vertex="1" parent="tqfpcxPNvMQN-E41AzFX-679">
          <mxGeometry x="21.666666666666668" width="53.33333333333334" height="120" as="geometry">
            <mxRectangle x="6.666666666666668" width="60" height="30" as="alternateBounds" />
          </mxGeometry>
        </mxCell>
        <mxCell id="tqfpcxPNvMQN-E41AzFX-682" value="" style="text;strokeColor=#6c8ebf;fillColor=#dae8fc;align=left;verticalAlign=middle;spacingLeft=4;spacingRight=4;overflow=hidden;points=[[0,0.5],[1,0.5]];portConstraint=eastwest;rotatable=0;whiteSpace=wrap;html=1;textShadow=1;shadow=1;" vertex="1" parent="tqfpcxPNvMQN-E41AzFX-681">
          <mxGeometry y="20" width="53.33333333333334" height="30" as="geometry" />
        </mxCell>
        <mxCell id="tqfpcxPNvMQN-E41AzFX-683" value="" style="text;strokeColor=#666666;fillColor=#f5f5f5;align=left;verticalAlign=middle;spacingLeft=4;spacingRight=4;overflow=hidden;portConstraint=eastwest;rotatable=0;whiteSpace=wrap;html=1;fontColor=#333333;points=[[0,0,0,0,0],[0,0.5,0,0,0],[0,1,0,0,0],[0.25,0,0,0,0],[0.25,1,0,0,0],[0.5,0,0,0,0],[0.5,1,0,0,0],[0.75,0,0,0,0],[0.75,1,0,0,0],[1,0,0,0,0],[1,0.5,0,0,0],[1,1,0,0,0]];textShadow=1;shadow=1;" vertex="1" parent="tqfpcxPNvMQN-E41AzFX-681">
          <mxGeometry y="50" width="53.33333333333334" height="10" as="geometry" />
        </mxCell>
        <mxCell id="tqfpcxPNvMQN-E41AzFX-684" value="" style="text;strokeColor=#6c8ebf;fillColor=#dae8fc;align=left;verticalAlign=middle;spacingLeft=4;spacingRight=4;overflow=hidden;points=[[0,0.5],[1,0.5]];portConstraint=eastwest;rotatable=0;whiteSpace=wrap;html=1;textShadow=1;shadow=1;" vertex="1" parent="tqfpcxPNvMQN-E41AzFX-681">
          <mxGeometry y="60" width="53.33333333333334" height="60" as="geometry" />
        </mxCell>
        <mxCell id="tqfpcxPNvMQN-E41AzFX-685" value="" style="shape=curlyBracket;whiteSpace=wrap;html=1;rounded=1;labelPosition=left;verticalLabelPosition=middle;align=right;verticalAlign=middle;" vertex="1" parent="tqfpcxPNvMQN-E41AzFX-679">
          <mxGeometry x="15" y="60" width="6.666666666666668" height="60" as="geometry" />
        </mxCell>
        <mxCell id="tqfpcxPNvMQN-E41AzFX-686" value="" style="endArrow=classic;html=1;rounded=0;exitX=0.5;exitY=1;exitDx=0;exitDy=0;entryX=0;entryY=0.5;entryDx=0;entryDy=0;entryPerimeter=0;edgeStyle=orthogonalEdgeStyle;" edge="1" parent="1" source="tqfpcxPNvMQN-E41AzFX-392" target="tqfpcxPNvMQN-E41AzFX-683">
          <mxGeometry width="50" height="50" relative="1" as="geometry">
            <mxPoint x="210" y="220" as="sourcePoint" />
            <mxPoint x="227" y="295" as="targetPoint" />
          </mxGeometry>
        </mxCell>
        <mxCell id="tqfpcxPNvMQN-E41AzFX-687" value="" style="endArrow=classic;html=1;rounded=0;exitX=1;exitY=0.5;exitDx=0;exitDy=0;entryX=0.75;entryY=1;entryDx=0;entryDy=0;edgeStyle=orthogonalEdgeStyle;exitPerimeter=0;" edge="1" parent="1" source="tqfpcxPNvMQN-E41AzFX-674" target="tqfpcxPNvMQN-E41AzFX-685">
          <mxGeometry width="50" height="50" relative="1" as="geometry">
            <mxPoint x="223" y="360" as="sourcePoint" />
            <mxPoint x="260" y="435" as="targetPoint" />
            <Array as="points">
              <mxPoint x="250" y="255" />
              <mxPoint x="250" y="330" />
            </Array>
          </mxGeometry>
        </mxCell>
        <mxCell id="tqfpcxPNvMQN-E41AzFX-693" value="" style="endArrow=classic;html=1;rounded=0;exitX=0.5;exitY=1;exitDx=0;exitDy=0;entryX=0;entryY=0.5;entryDx=0;entryDy=0;entryPerimeter=0;edgeStyle=orthogonalEdgeStyle;" edge="1" parent="1" source="tqfpcxPNvMQN-E41AzFX-383" target="tqfpcxPNvMQN-E41AzFX-698">
          <mxGeometry width="50" height="50" relative="1" as="geometry">
            <mxPoint x="290" y="230" as="sourcePoint" />
            <mxPoint x="371.66666666666674" y="275" as="targetPoint" />
          </mxGeometry>
        </mxCell>
        <mxCell id="tqfpcxPNvMQN-E41AzFX-694" value="" style="group" vertex="1" connectable="0" parent="1">
          <mxGeometry x="350" y="220" width="90" height="120" as="geometry" />
        </mxCell>
        <mxCell id="tqfpcxPNvMQN-E41AzFX-695" value="p1" style="text;html=1;align=right;verticalAlign=middle;whiteSpace=wrap;rounded=0;" vertex="1" parent="tqfpcxPNvMQN-E41AzFX-694">
          <mxGeometry y="75" width="15.000000000000002" height="30" as="geometry" />
        </mxCell>
        <mxCell id="tqfpcxPNvMQN-E41AzFX-696" value="Table P1" style="swimlane;fontStyle=0;childLayout=stackLayout;horizontal=1;startSize=20;horizontalStack=0;resizeParent=1;resizeParentMax=0;resizeLast=0;collapsible=1;marginBottom=0;whiteSpace=wrap;html=1;strokeColor=none;fillColor=none;" vertex="1" parent="tqfpcxPNvMQN-E41AzFX-694">
          <mxGeometry x="21.666666666666668" width="53.33333333333334" height="120" as="geometry">
            <mxRectangle x="6.666666666666668" width="60" height="30" as="alternateBounds" />
          </mxGeometry>
        </mxCell>
        <mxCell id="tqfpcxPNvMQN-E41AzFX-697" value="" style="text;strokeColor=#6c8ebf;fillColor=#dae8fc;align=left;verticalAlign=middle;spacingLeft=4;spacingRight=4;overflow=hidden;points=[[0,0.5],[1,0.5]];portConstraint=eastwest;rotatable=0;whiteSpace=wrap;html=1;textShadow=1;shadow=1;" vertex="1" parent="tqfpcxPNvMQN-E41AzFX-696">
          <mxGeometry y="20" width="53.33333333333334" height="30" as="geometry" />
        </mxCell>
        <mxCell id="tqfpcxPNvMQN-E41AzFX-698" value="" style="text;strokeColor=#666666;fillColor=#f5f5f5;align=left;verticalAlign=middle;spacingLeft=4;spacingRight=4;overflow=hidden;portConstraint=eastwest;rotatable=0;whiteSpace=wrap;html=1;fontColor=#333333;points=[[0,0,0,0,0],[0,0.5,0,0,0],[0,1,0,0,0],[0.25,0,0,0,0],[0.25,1,0,0,0],[0.5,0,0,0,0],[0.5,1,0,0,0],[0.75,0,0,0,0],[0.75,1,0,0,0],[1,0,0,0,0],[1,0.5,0,0,0],[1,1,0,0,0]];textShadow=1;shadow=1;" vertex="1" parent="tqfpcxPNvMQN-E41AzFX-696">
          <mxGeometry y="50" width="53.33333333333334" height="10" as="geometry" />
        </mxCell>
        <mxCell id="tqfpcxPNvMQN-E41AzFX-699" value="" style="text;strokeColor=#6c8ebf;fillColor=#dae8fc;align=left;verticalAlign=middle;spacingLeft=4;spacingRight=4;overflow=hidden;points=[[0,0.5],[1,0.5]];portConstraint=eastwest;rotatable=0;whiteSpace=wrap;html=1;textShadow=1;shadow=1;" vertex="1" parent="tqfpcxPNvMQN-E41AzFX-696">
          <mxGeometry y="60" width="53.33333333333334" height="60" as="geometry" />
        </mxCell>
        <mxCell id="tqfpcxPNvMQN-E41AzFX-700" value="" style="shape=curlyBracket;whiteSpace=wrap;html=1;rounded=1;labelPosition=left;verticalLabelPosition=middle;align=right;verticalAlign=middle;" vertex="1" parent="tqfpcxPNvMQN-E41AzFX-694">
          <mxGeometry x="15" y="60" width="6.666666666666668" height="60" as="geometry" />
        </mxCell>
        <mxCell id="tqfpcxPNvMQN-E41AzFX-701" value="" style="endArrow=classic;html=1;rounded=0;exitX=1;exitY=0.5;exitDx=0;exitDy=0;entryX=0;entryY=1;entryDx=0;entryDy=0;edgeStyle=orthogonalEdgeStyle;exitPerimeter=0;" edge="1" parent="1" source="tqfpcxPNvMQN-E41AzFX-683" target="tqfpcxPNvMQN-E41AzFX-696">
          <mxGeometry width="50" height="50" relative="1" as="geometry">
            <mxPoint x="360" y="210" as="sourcePoint" />
            <mxPoint x="377" y="305" as="targetPoint" />
            <Array as="points">
              <mxPoint x="340" y="265" />
              <mxPoint x="340" y="340" />
            </Array>
          </mxGeometry>
        </mxCell>
        <mxCell id="tqfpcxPNvMQN-E41AzFX-709" value="" style="edgeStyle=orthogonalEdgeStyle;rounded=0;orthogonalLoop=1;jettySize=auto;html=1;entryX=0;entryY=0.5;entryDx=0;entryDy=0;entryPerimeter=0;" edge="1" parent="1" source="tqfpcxPNvMQN-E41AzFX-374" target="tqfpcxPNvMQN-E41AzFX-706">
          <mxGeometry relative="1" as="geometry" />
        </mxCell>
        <mxCell id="tqfpcxPNvMQN-E41AzFX-710" value="" style="edgeStyle=orthogonalEdgeStyle;rounded=0;orthogonalLoop=1;jettySize=auto;html=1;entryX=0;entryY=1;entryDx=0;entryDy=0;" edge="1" parent="1" source="tqfpcxPNvMQN-E41AzFX-698" target="tqfpcxPNvMQN-E41AzFX-704">
          <mxGeometry relative="1" as="geometry">
            <Array as="points">
              <mxPoint x="430" y="275" />
              <mxPoint x="430" y="350" />
            </Array>
          </mxGeometry>
        </mxCell>
        <mxCell id="tqfpcxPNvMQN-E41AzFX-702" value="" style="group;spacingBottom=0;spacing=2;textShadow=0;" vertex="1" connectable="0" parent="1">
          <mxGeometry x="460" y="230" width="90" height="120" as="geometry" />
        </mxCell>
        <mxCell id="tqfpcxPNvMQN-E41AzFX-704" value="Page de 4K" style="swimlane;fontStyle=0;childLayout=stackLayout;horizontal=1;startSize=20;horizontalStack=0;resizeParent=1;resizeParentMax=0;resizeLast=0;collapsible=1;marginBottom=0;strokeColor=none;fillColor=none;verticalAlign=middle;whiteSpace=wrap;overflow=visible;spacingBottom=10;html=1;textShadow=0;" vertex="1" parent="tqfpcxPNvMQN-E41AzFX-702">
          <mxGeometry x="21.666666666666668" y="-40" width="53.33" height="160" as="geometry">
            <mxRectangle x="6.666666666666668" width="60" height="30" as="alternateBounds" />
          </mxGeometry>
        </mxCell>
        <mxCell id="tqfpcxPNvMQN-E41AzFX-705" value="" style="text;strokeColor=#6c8ebf;fillColor=#dae8fc;align=left;verticalAlign=middle;spacingLeft=4;spacingRight=4;overflow=hidden;points=[[0,0.5],[1,0.5]];portConstraint=eastwest;rotatable=0;whiteSpace=wrap;html=1;textShadow=1;shadow=1;" vertex="1" parent="tqfpcxPNvMQN-E41AzFX-704">
          <mxGeometry y="20" width="53.33" height="70" as="geometry" />
        </mxCell>
        <mxCell id="tqfpcxPNvMQN-E41AzFX-706" value="" style="text;strokeColor=#666666;fillColor=#f5f5f5;align=left;verticalAlign=middle;spacingLeft=4;spacingRight=4;overflow=hidden;portConstraint=eastwest;rotatable=0;whiteSpace=wrap;html=1;fontColor=#333333;points=[[0,0,0,0,0],[0,0.5,0,0,0],[0,1,0,0,0],[0.25,0,0,0,0],[0.25,1,0,0,0],[0.5,0,0,0,0],[0.5,1,0,0,0],[0.75,0,0,0,0],[0.75,1,0,0,0],[1,0,0,0,0],[1,0.5,0,0,0],[1,1,0,0,0]];textShadow=1;shadow=1;" vertex="1" parent="tqfpcxPNvMQN-E41AzFX-704">
          <mxGeometry y="90" width="53.33" height="10" as="geometry" />
        </mxCell>
        <mxCell id="tqfpcxPNvMQN-E41AzFX-707" value="" style="text;strokeColor=#6c8ebf;fillColor=#dae8fc;align=left;verticalAlign=middle;spacingLeft=4;spacingRight=4;overflow=hidden;points=[[0,0.5],[1,0.5]];portConstraint=eastwest;rotatable=0;whiteSpace=wrap;html=1;textShadow=1;labelBorderColor=none;labelBackgroundColor=none;shadow=1;" vertex="1" parent="tqfpcxPNvMQN-E41AzFX-704">
          <mxGeometry y="100" width="53.33" height="60" as="geometry" />
        </mxCell>
        <mxCell id="tqfpcxPNvMQN-E41AzFX-703" value="d" style="text;html=1;align=right;verticalAlign=middle;whiteSpace=wrap;rounded=0;" vertex="1" parent="tqfpcxPNvMQN-E41AzFX-702">
          <mxGeometry y="75" width="15.000000000000002" height="30" as="geometry" />
        </mxCell>
        <mxCell id="tqfpcxPNvMQN-E41AzFX-708" value="" style="shape=curlyBracket;whiteSpace=wrap;html=1;rounded=1;labelPosition=left;verticalLabelPosition=middle;align=right;verticalAlign=middle;" vertex="1" parent="1">
          <mxGeometry x="475" y="290" width="6.666666666666668" height="60" as="geometry" />
        </mxCell>
        <mxCell id="tqfpcxPNvMQN-E41AzFX-712" style="edgeStyle=orthogonalEdgeStyle;rounded=0;orthogonalLoop=1;jettySize=auto;html=1;exitX=0;exitY=0.5;exitDx=0;exitDy=0;entryX=0;entryY=1;entryDx=0;entryDy=0;" edge="1" parent="1" source="tqfpcxPNvMQN-E41AzFX-711" target="tqfpcxPNvMQN-E41AzFX-601">
          <mxGeometry relative="1" as="geometry">
            <Array as="points">
              <mxPoint x="80" y="355" />
              <mxPoint x="80" y="310" />
            </Array>
          </mxGeometry>
        </mxCell>
        <mxCell id="tqfpcxPNvMQN-E41AzFX-711" value="Registre CR3" style="rounded=0;whiteSpace=wrap;html=1;fillColor=#f5f5f5;fontColor=#333333;strokeColor=#666666;shadow=1;" vertex="1" parent="1">
          <mxGeometry x="110" y="340" width="70" height="30" as="geometry" />
        </mxCell>
        <mxCell id="tqfpcxPNvMQN-E41AzFX-713" value="Addresse virtuelle" style="text;html=1;align=left;verticalAlign=top;resizable=0;points=[];autosize=1;strokeColor=none;fillColor=none;" vertex="1" parent="1">
          <mxGeometry x="40" y="90" width="120" height="30" as="geometry" />
        </mxCell>
      </root>
    </mxGraphModel>
  </diagram>
</mxfile>
